<svg width="32" height="32" viewBox="0 0 32 32" fill="none" xmlns="http://www.w3.org/2000/svg">
  <rect width="32" height="32" rx="6" fill="#09090b"/>
  <svg x="1" y="7" width="30" height="18" viewBox="0 0 134 70" fill="none" xmlns="http://www.w3.org/2000/svg">
    <path d="M109.481 27.5661H122.302L128.901 14.2825C127.373 13.1323 125.456 12.502 123.063 12.502C109.841 12.502 109.841 24.8311 109.841 24.8311H105.574L108.653 13.6086H93.8638V56.2677H109.483V27.5661H109.481Z" fill="white"/>
    <path d="M45.6455 27.7262L45.7542 13.6067H4.57129L11.64 27.6156H23.9573V56.2005H40.6162V42.3161C40.6162 34.87 33.4349 31.969 30.107 31.2951V27.6156L45.6435 27.7242L45.6455 27.7262Z" fill="white"/>
    <path d="M71.8058 13.6422H71.8018V35.8008C71.8018 37.5279 70.3988 38.931 68.6716 38.931C66.9445 38.931 65.5414 37.5279 65.5414 35.8008V22.7641C65.5414 17.6795 61.4192 13.5592 56.3365 13.5592H50.0662C50.0267 13.7193 50.0069 31.3524 50.0662 38.9982C50.1472 49.78 52.2637 57.4079 60.6188 57.4079C66.8971 57.4079 70.6102 52.4419 72.4658 48.8868H76.7383L73.0014 56.2677H87.4509V13.6422H71.8038H71.8058Z" fill="white"/>
    <path d="M127.431 56.41L91.8682 69.2628C87.3784 70.8833 82.4222 68.5613 80.8018 64.0675C79.1813 59.5777 81.5033 54.6216 85.9931 53.0011L121.556 40.1483C126.046 38.5278 131.002 40.8498 132.626 45.3435C134.247 49.8334 131.925 54.7895 127.431 56.41Z" fill="#FEAC28"/>
  </svg>
</svg>
