<svg width="134" height="70" viewBox="0 0 134 70" fill="none" xmlns="http://www.w3.org/2000/svg">
<path d="M109.481 27.5661H122.302L128.901 14.2825C127.373 13.1323 125.456 12.502 123.063 12.502C109.841 12.502 109.841 24.8311 109.841 24.8311H105.574L108.653 13.6086H93.8638V56.2677H109.483V27.5661H109.481Z" fill="white"/>
<path d="M45.6455 27.7262L45.7542 13.6067H4.57129L11.64 27.6156H23.9573V56.2005H40.6162V42.3161C40.6162 34.87 33.4349 31.969 30.107 31.2951V27.6156L45.6435 27.7242L45.6455 27.7262Z" fill="white"/>
<path d="M71.8058 13.6422H71.8018V35.8008C71.8018 37.5279 70.3988 38.931 68.6716 38.931C66.9445 38.931 65.5414 37.5279 65.5414 35.8008V22.7641C65.5414 17.6795 61.4192 13.5592 56.3365 13.5592H50.0662C50.0267 13.7193 50.0069 31.3524 50.0662 38.9982C50.1472 49.78 52.2637 57.4079 60.6188 57.4079C66.8971 57.4079 70.6102 52.4419 72.4658 48.8868H76.7383L73.0014 56.2677H87.4509V13.6422H71.8038H71.8058Z" fill="white"/>
<path d="M127.431 56.41L91.8682 69.2628C87.3784 70.8833 82.4222 68.5613 80.8018 64.0675C79.1813 59.5777 81.5033 54.6216 85.9931 53.0011L121.556 40.1483C126.046 38.5278 131.002 40.8498 132.626 45.3435C134.247 49.8334 131.925 54.7895 127.431 56.41Z" fill="#FEAC28"/>
<path d="M88.7692 58.3327C87.2101 58.8939 86.4077 60.6132 86.969 62.1704C87.5302 63.7296 89.2494 64.5319 90.8067 63.9707C92.3619 63.4094 93.1681 61.6902 92.6069 60.133C92.0457 58.5738 90.3264 57.7715 88.7692 58.3327Z" fill="#2C1735"/>
<path d="M98.3043 55.3903C98.5928 55.0326 98.9584 54.7737 99.407 54.6117C99.8872 54.4358 100.361 54.4081 100.83 54.5188C101.298 54.6314 101.695 54.8468 102.029 55.1689L103.725 53.7105C103.355 53.337 102.911 53.0288 102.385 52.7877C101.863 52.5466 101.282 52.4063 100.644 52.3707C100.006 52.3312 99.3615 52.4339 98.7074 52.6711C97.8537 52.9794 97.1443 53.4576 96.587 54.1058C96.0297 54.752 95.6721 55.493 95.512 56.323C95.3519 57.153 95.4231 57.9869 95.7215 58.8129C96.0218 59.6429 96.4961 60.3247 97.1522 60.8622C97.8063 61.3997 98.5553 61.7396 99.3971 61.8799C100.239 62.0202 101.089 61.9353 101.942 61.627C102.596 61.3898 103.158 61.0539 103.626 60.6172C104.094 60.1804 104.448 59.7022 104.697 59.1825C104.946 58.6608 105.09 58.1391 105.138 57.6154L102.901 57.5798C102.849 58.0403 102.683 58.4612 102.395 58.8465C102.106 59.2319 101.725 59.5125 101.241 59.6844C100.792 59.8484 100.344 59.884 99.8931 59.7892C99.4445 59.7002 99.0434 59.4967 98.6936 59.1884C98.3438 58.8801 98.081 58.4869 97.911 58.0146C97.7391 57.5423 97.6897 57.0759 97.7628 56.6115C97.8359 56.1471 98.0158 55.7381 98.3043 55.3843" fill="#2C1735"/>
<path d="M110.708 49.0033C109.866 48.863 109.017 48.9441 108.163 49.2563C107.309 49.5646 106.604 50.0428 106.043 50.691C105.485 51.3372 105.128 52.0782 104.968 52.9082C104.807 53.7382 104.879 54.5721 105.177 55.3982C105.477 56.2281 105.952 56.9099 106.608 57.4474C107.262 57.9849 108.011 58.3248 108.853 58.4651C109.694 58.6054 110.544 58.5244 111.398 58.2122C112.252 57.9039 112.957 57.4257 113.518 56.7775C114.076 56.1313 114.433 55.3902 114.593 54.5603C114.753 53.7303 114.682 52.9003 114.384 52.0703C114.084 51.2403 113.609 50.5586 112.953 50.0211C112.299 49.4835 111.55 49.1437 110.708 49.0033ZM112.345 54.2638C112.275 54.7282 112.092 55.1373 111.803 55.491C111.515 55.8487 111.149 56.1076 110.7 56.2696C110.252 56.4297 109.803 56.4692 109.353 56.3744C108.9 56.2854 108.503 56.0819 108.153 55.7736C107.803 55.4653 107.54 55.0721 107.371 54.5998C107.199 54.1275 107.153 53.6611 107.222 53.1967C107.292 52.7323 107.475 52.3233 107.764 51.9656C108.052 51.6079 108.418 51.349 108.866 51.187C109.315 51.023 109.764 50.9874 110.214 51.0823C110.663 51.1712 111.064 51.3747 111.414 51.683C111.764 51.9913 112.026 52.3845 112.196 52.8568C112.368 53.3291 112.414 53.7955 112.345 54.2599" fill="#2C1735"/>
<path d="M123.053 44.0136L121.771 44.478L121.124 44.7112L120.903 51.2285L116.569 46.3573L115.797 46.6379L114.516 47.1003L113.807 47.3533L116.955 56.0641L118.947 55.3468L116.963 49.863L121.124 54.5603L122.741 53.9753L122.936 47.705L124.917 53.1868L126.908 52.4675L123.762 43.7567L123.053 44.0136Z" fill="#2C1735"/>
</svg>
